<?xml version="1.0" encoding="UTF-8"?>
<svg width="24px" height="24px" viewBox="0 0 24 24" version="1.1" xmlns="http://www.w3.org/2000/svg" xmlns:xlink="http://www.w3.org/1999/xlink">
    <title>MP/Icon/account-user</title>
    <g id="MP/Icon/account-user" stroke="none" stroke-width="1" fill="none" fill-rule="evenodd">
        <rect id="矩形" x="0" y="0" width="24" height="24" fill="transparent"></rect>
        <path d="M12,3 C14.5544325,3 16.661879,5.00960098 16.7739291,7.55599574 L16.7786145,7.76940632 L16.7786145,9.21631096 C16.7786145,11.4209627 15.2596875,11.8743336 15.2596875,13.2588 C15.2596875,13.6817758 16.3641554,14.2730933 18.5730912,15.0327524 L19.1244416,15.2183028 L19.7675367,15.4259579 C20.6484918,15.8495293 21.3236239,16.8011632 21.4702853,17.7925088 L21.4915125,17.9787323 L21.5,18.1900074 L21.5,19.8 C21.5,20.4213203 21.0327191,20.9323525 20.433915,20.9938045 L20.3125,21 L3.6875,21 C3.07265174,21 2.5669428,20.5278003 2.50613093,19.922693 L2.5,19.8 L2.5,18.1900074 C2.5,17.0667269 3.23531421,15.9054045 4.23226994,15.4258606 L5.1164924,15.108401 L5.90425422,14.8124391 C7.79416807,14.0835613 8.739125,13.5652816 8.739125,13.2576 C8.739125,12.08384 7.48648637,10.8318583 7.26137249,9.71775165 L7.22969218,9.48120359 L7.22138554,9.21555353 L7.22138554,7.76887571 C7.22138554,5.123124 9.37613208,3 12,3 Z M12,4.5 C10.2554226,4.5 8.82328273,5.8637974 8.72658887,7.58332528 L8.72138554,7.76887571 L8.72065276,9.16867277 L8.726,9.376 L8.7316588,9.42066891 C8.76012595,9.56155507 8.83465894,9.7354033 9.02532699,10.083577 L9.51901922,10.9559516 C9.58329355,11.0724668 9.63725107,11.1744558 9.69336969,11.2853917 C10.0452949,11.9810813 10.239125,12.5926613 10.239125,13.2576 C10.239125,14.5531684 9.38356414,15.1045888 6.51406765,16.1891577 L5.62335518,16.5201694 L4.837,16.802 L4.77298052,16.8380261 C4.37778682,17.0843394 4.05759655,17.594216 4.00697591,18.0633119 L4,18.1900074 L3.998,19.5 L20,19.501 L20.0012089,18.2502176 L19.994,18.084 L19.9864358,18.0120322 C19.9175832,17.5466289 19.6032723,17.0744527 19.2308378,16.8405822 L19.18,16.812 L18.6460016,16.639955 L18.0852778,16.4512157 L17.5044755,16.2483302 C14.8113973,15.2904457 13.7596875,14.6383698 13.7596875,13.2588 C13.7596875,12.5805996 13.9410472,12.0298989 14.2861971,11.4459666 L14.4232717,11.2251203 C14.5065032,11.0968176 14.7837919,10.6942032 14.7762817,10.7053179 C15.1064314,10.2167141 15.2465532,9.89063255 15.2736155,9.40607539 L15.2786145,9.21631096 L15.2789758,7.80233032 L15.2753792,7.62193709 C15.1986897,5.8791293 13.7532298,4.5 12,4.5 Z" id="路径" fill="#4C4D4E"></path>
    </g>
</svg>